<svg id="icons" enable-background="new 0 0 64 64" height="512" viewBox="0 0 64 64" width="512" xmlns="http://www.w3.org/2000/svg"><path d="m37.09 57.68-29.279-29.28-6.51 15.69 40.66 16.84 5.728-13.85z" fill="#ccd1d9"/><path d="m32.699 47.07v-41.42l-15.699 6.51.99 2.391 15.85 38.26 13.849-5.741z" fill="#ccd1d9"/><path d="m5.971 26.561 12.019-12.01 15.85 38.26 13.849-5.741v.01l-10.599 10.6-29.279-29.28z" fill="#e6e9ed"/><path d="m32.699 3.07v2.58 41.42h14.99.01v-.009h.012l-.012.009h15v-44z" fill="#e6e9ed"/><path d="m10.01 41.74c.311.75-.049 1.6-.799 1.91-.74.309-1.602-.041-1.91-.791l-1.121-2.709 2.711-1.121c.74-.309 1.6.051 1.91.801.308.74-.051 1.6-.791 1.91z" fill="#656d78"/><g fill="#ed5565"><path d="m26.5 14.18-1.359 3.259-3.26-1.349 1.349-3.27z"/><path d="m40.27 6.5c.57.57.57 1.49 0 2.07l-2.07 2.07-2.068-2.07c-.57-.58-.57-1.5 0-2.07.568-.58 1.5-.58 2.068 0 .57-.58 1.499-.58 2.07 0z"/><path d="m59.27 39.92c.57.58.57 1.5 0 2.07l-2.07 2.07-2.068-2.07c-.57-.57-.57-1.49 0-2.07.568-.57 1.5-.57 2.068 0 .57-.57 1.499-.57 2.07 0z"/><path d="m52.23 21.01c1.24 1.25 1.24 3.279 0 4.529l-4.531 4.531-4.539-4.531c-1.24-1.25-1.24-3.279 0-4.529 1.25-1.25 3.289-1.25 4.539 0 1.25-1.25 3.272-1.25 4.531 0z"/></g><path d="m41.955 61.932c-.128 0-.258-.024-.383-.076l-40.654-16.84c-.245-.102-.439-.296-.541-.541s-.102-.521 0-.766l6.504-15.699c.211-.511.799-.751 1.307-.541.51.211.752.796.541 1.307l-6.122 14.775 38.807 16.074 5.363-12.947c.211-.511.799-.752 1.307-.541.51.211.752.796.541 1.307l-5.746 13.871c-.159.384-.532.617-.924.617z" fill="#ccd1d9"/><path d="m37.09 58.68c-.256 0-.512-.098-.707-.293l-31.115-31.116c-.391-.391-.391-1.023 0-1.414l12.014-12.014c.391-.391 1.023-.391 1.414 0s.391 1.023 0 1.414l-11.307 11.307 29.701 29.702 9.91-9.91c.391-.391 1.023-.391 1.414 0s.391 1.023 0 1.414l-10.617 10.617c-.195.195-.451.293-.707.293z" fill="#e6e9ed"/><path d="m33.838 53.813c-.392 0-.765-.232-.924-.617l-16.84-40.654c-.102-.245-.102-.521 0-.766s.296-.439.541-.541l15.701-6.502c.509-.21 1.096.03 1.307.541s-.031 1.096-.541 1.307l-14.777 6.119 16.074 38.807 12.951-5.363c.509-.21 1.096.03 1.307.541s-.031 1.096-.541 1.307l-13.875 5.746c-.125.05-.255.075-.383.075z" fill="#ccd1d9"/><path d="m15.17 29.684c-.256 0-.512-.098-.707-.293l-3.537-3.537c-.391-.391-.391-1.023 0-1.414s1.023-.391 1.414 0l3.537 3.537c.391.391.391 1.023 0 1.414-.195.195-.451.293-.707.293z" fill="#545c66"/><path d="m14.463 30.391c-.256 0-.512-.098-.707-.293-.391-.391-.391-1.023 0-1.414l1.414-1.414c.391-.391 1.023-.391 1.414 0s.391 1.023 0 1.414l-1.414 1.414c-.195.195-.451.293-.707.293z" fill="#656d78"/><path d="m11.633 28.977c-.256 0-.512-.098-.707-.293-.391-.391-.391-1.023 0-1.414l2.828-2.828c.391-.391 1.023-.391 1.414 0s.391 1.023 0 1.414l-2.828 2.828c-.195.195-.451.293-.707.293z" fill="#656d78"/><path d="m62.699 48.072h-30.004c-.553 0-1-.447-1-1v-44.004c0-.553.447-1 1-1h30.004c.553 0 1 .447 1 1v44.004c0 .553-.447 1-1 1zm-29.004-2h28.004v-42.004h-28.004z" fill="#e6e9ed"/></svg>